<?xml version="1.0" standalone="no"?>
<!DOCTYPE svg PUBLIC "-//W3C//DTD SVG 20010904//EN"
 "http://www.w3.org/TR/2001/REC-SVG-20010904/DTD/svg10.dtd">
<svg version="1.0" xmlns="http://www.w3.org/2000/svg"
 width="300.000000pt" height="300.000000pt" viewBox="0 0 300.000000 300.000000"
 preserveAspectRatio="xMidYMid meet">
<metadata>
Created by potrace 1.11, written by Peter Selinger 2001-2013
</metadata>
<g transform="translate(0.000000,300.000000) scale(0.100000,-0.100000)"
fill="#000000" stroke="none">
<path d="M1418 2975 c-2 -1 -40 -5 -84 -9 -99 -7 -281 -52 -389 -95 -382 -153
-682 -457 -830 -841 -162 -418 -124 -888 103 -1277 137 -234 368 -450 612
-573 287 -144 654 -192 965 -126 191 40 354 110 525 223 297 198 509 498 605
853 33 126 40 192 40 395 -1 139 -5 189 -24 274 -135 616 -618 1070 -1233
1161 -71 10 -282 22 -290 15z m342 -189 c474 -108 844 -439 983 -882 48 -152
61 -238 61 -404 0 -165 -13 -250 -61 -405 -122 -388 -439 -708 -833 -839 -169
-56 -240 -66 -445 -62 -197 3 -294 22 -457 86 -425 169 -737 556 -813 1008
-14 87 -15 362 -1 427 70 317 172 511 376 715 188 189 448 322 710 365 114 19
378 14 480 -9z"/>
<path d="M1450 2360 c-44 -44 -11 -124 49 -122 46 1 71 27 71 73 0 28 -6 42
-22 53 -31 22 -74 20 -98 -4z"/>
<path d="M1360 2024 c-74 -91 -143 -176 -153 -187 -11 -12 -51 -61 -90 -109
-63 -79 -72 -86 -91 -76 -12 6 -117 67 -234 136 -117 68 -214 123 -216 121 -1
-2 19 -72 46 -154 45 -141 50 -152 80 -166 18 -9 103 -56 188 -106 85 -49 169
-97 186 -106 l31 -16 194 244 c107 134 197 244 201 244 3 1 93 -109 198 -244
105 -135 196 -245 200 -245 5 0 29 11 52 24 24 13 111 61 193 106 83 45 157
89 166 98 17 17 115 300 107 308 -4 3 -203 -105 -431 -235 -21 -12 -42 -19
-47 -16 -5 3 -67 81 -139 173 -240 309 -286 365 -296 368 -5 2 -71 -71 -145
-162z"/>
<path d="M505 2052 c-44 -9 -61 -74 -27 -105 40 -36 102 -9 102 44 0 43 -33
70 -75 61z"/>
<path d="M2420 2013 c-11 -15 -18 -33 -15 -41 3 -7 5 -18 5 -23 0 -5 11 -16
25 -25 21 -14 30 -14 55 -4 50 21 53 92 3 111 -38 14 -50 11 -73 -18z"/>
<path d="M1370 1341 l0 -59 55 -1 55 0 0 59 0 60 -55 0 -55 0 0 -59z"/>
<path d="M1520 1342 l0 -59 55 -2 c60 -2 58 -4 57 64 0 17 0 35 -1 41 -1 6
-26 12 -56 13 l-55 2 0 -59z"/>
<path d="M788 1265 c-3 -3 11 -57 30 -120 l36 -115 93 0 c107 0 110 3 68 75
-31 52 -105 122 -148 140 -49 20 -73 26 -79 20z"/>
<path d="M2165 1257 c-57 -23 -92 -46 -128 -86 -35 -39 -77 -110 -77 -131 0
-6 34 -10 89 -10 l89 0 36 108 c48 142 48 141 -9 119z"/>
<path d="M1380 1252 c-6 -2 -10 -28 -10 -58 l0 -54 55 0 56 0 -3 57 -3 57 -43
0 c-23 1 -47 0 -52 -2z"/>
<path d="M1538 1252 c-15 -3 -18 -14 -18 -58 l0 -54 55 0 c30 0 55 3 56 8 1 4
2 28 3 55 1 41 -1 47 -19 48 -11 0 -29 2 -40 3 -11 1 -28 0 -37 -2z"/>
<path d="M862 988 c3 -7 15 -55 28 -105 l24 -93 571 0 571 0 32 98 c18 54 32
101 32 104 0 4 -284 7 -631 8 -510 0 -631 -2 -627 -12z"/>
<path d="M1045 751 c-2 -4 2 -29 9 -57 l12 -49 429 0 428 0 18 52 c10 29 15
54 11 56 -13 7 -902 5 -907 -2z"/>
</g>
</svg>
